<?xml version="1.0" encoding="utf-8"?>
<!-- Generator: Adobe Illustrator 27.0.0, SVG Export Plug-In . SVG Version: 6.00 Build 0)  -->
<svg version="1.1" xmlns="http://www.w3.org/2000/svg" xmlns:xlink="http://www.w3.org/1999/xlink" x="0px" y="0px"
	 viewBox="0 0 783 833.34" style="enable-background:new 0 0 783 833.34;" xml:space="preserve">
<style type="text/css">
	.st0{fill:#F4DD7A;}
	.st1{fill:#19AAA4;}
	.st2{fill:#323232;}
	.st3{fill:#F99974;}
	.st4{fill:#FFFFFF;}
	.st5{fill:#BC2027;}
	.st6{fill:#EC393F;}
	.st7{fill:#F97070;}
	.st8{fill:#FA4D52;}
</style>
<g id="Layer_3">
</g>
<g id="CORN_00000063605693967727742230000016483200119782424253_">
</g>
<g id="LEAVES">
</g>
<g id="CORN">
</g>
<g id="VERBIAGE_FILL">
</g>
<g id="BOTTOM_LINES_FILL">
</g>
<g id="TOP_LINES_FILL">
</g>
<g id="VERBIAGE">
	<path class="st0" d="M394.13,547.81c-6.26-13.76-82.57-107.59-93.83-123.86c-11.26-16.26-31.28-45.04-28.78-61.3
		s11.26-56.3,12.51-68.81c1.25-12.51,26.27-123.86,27.52-135.12c1.25-11.26,15.01-45.04,21.27-55.05s66.31-67.56,66.31-67.56
		s27.52,21.27,45.04,26.27s55.05,41.29,56.3,45.04c1.25,3.75,47.54,205.18,47.54,205.18l5,48.79l-26.24,96.63L426.66,566.58
		L394.13,547.81z"/>
	<path class="st1" d="M522.59,718.53c3.51-11.37,70.95-26.08,86.02-80.03c15.07-53.95,37.59-209.08,35.09-221.59
		c-2.5-12.51-37.53-115.1-37.53-115.1s-50.04,25.02-52.55,32.53c-2.5,7.51-67.56,140.12-72.56,147.63
		c-5,7.51-40.04,62.56-40.04,75.07s12.6,46.38,3.8,61.97c-8.8,15.59-23.78,54.91-23.78,54.91"/>
	<path class="st1" d="M395.21,804.59c15.01,0,60.11-63.18,60.11-63.18s5.8,4.37-20.19-61.79c-25.99-66.17-32.09-81.56-46.56-112.65
		c-14.46-31.09-89.53-133.68-92.03-141.18c-2.5-7.51-65.06-55.05-75.07-57.55c-10.01-2.5-65.06-2.5-65.06-2.5L75,417.92
		l-16.16,27.89c0,0,97.59,35.03,105.09,37.53c7.51,2.5,42.54,37.53,42.54,37.53l30.85,62.01l49.5,72.68l65.84,60.27L395.21,804.59z"
		/>
	<path class="st2" d="M252.44,366.11c-0.9-4.4-1.72-8.03-2.37-11.69c-1.8-10.11-1.07-20.05,2.48-29.71c0.9-2.46,0.65-4.41-0.78-6.68
		c-3.36-5.33-4.06-11.55-5.11-17.61c-2.37-13.67,0.38-26.6,5.9-39.05c3.47-7.84,7.3-15.5,12.64-22.31c0.6-0.77,0.55-2.2,0.48-3.31
		c-0.36-6.44-0.98-12.87-1.2-19.31c-0.45-12.89,2.95-25.01,8.15-36.62c2.32-5.18,5.05-10.3,8.4-14.85
		c3.87-5.26,2.96-10.83,2.26-16.36c-1.69-13.18-0.08-25.81,5.72-37.74c3.91-8.05,9.38-14.95,17.11-19.84
		c3.42-2.16,6.73-4.51,9.98-6.93c1.16-0.87,2.22-2.07,2.9-3.34c4.52-8.48,9.14-16.93,13.31-25.58
		c6.97-14.45,16.48-26.66,29.93-35.61c5-3.33,9.77-7.04,14.96-10.03c13.36-7.69,27.14-7.88,40.97-1.26
		c4.05,1.94,7.98,4.21,11.68,6.74c5.87,4.01,10.04,9.44,12.19,16.31c0.81,2.58,1.69,5.13,2.49,7.58
		c20.33,2.73,36.35,12.87,49.51,28.03c3.38,3.9,5.68,8.47,7.29,13.39c3.8,11.58,7.05,23.3,8.28,35.45c0.22,2.14,1.29,3.25,2.56,4.46
		c6.24,5.97,11.59,12.6,15.58,20.31c3.02,5.83,4.59,12.05,5.2,18.54c1.14,11.99,1.21,24,0.15,36c-0.15,1.72,0.61,2.83,1.79,3.88
		c10.39,9.19,15.84,21.15,18.1,34.46c1.04,6.13,0.43,12.57,0.29,18.86c-0.06,2.98-0.71,5.96-1.17,8.92
		c-0.5,3.22,0.06,6.17,1.36,9.19c3.52,8.12,6.81,16.34,10.11,24.55c3.28,8.16,4.76,16.71,5.22,25.46c0.05,0.88,0.2,1.76,0.42,3.63
		c1.02-1.63,1.7-2.49,2.14-3.45c4.59-9.96,8.82-20.11,13.77-29.89c9.3-18.35,21.35-34.88,35.13-50.08
		c7.49-8.27,17.25-12.94,28.26-14.79c4.59-0.77,8.47,1.16,12.42,3.88c-1.49,1.82-2.93,3.43-4.21,5.16
		c-4.1,5.55-5.17,11.98-5.52,18.67c-0.11,2.06-0.78,4.08-1.12,6.13c-0.22,1.32-0.51,2.67-0.45,3.99
		c0.68,14.58,1.27,29.16,2.19,43.72c1.05,16.55,3.86,32.73,8.73,48.71c3.92,12.88,6.01,26.33,8.54,39.6
		c1.83,9.58,2.86,19.28,3.01,29.07c0.08,5.08,1.15,10.14,1.36,15.22c0.35,8.67,0.94,17.35-0.42,26.02
		c-0.38,2.46,0.43,5.08,0.45,7.62c0.47,49.35-10.02,96.41-30.96,140.95c-12.17,25.9-28.69,49.06-49.8,68.63
		c-6.46,5.99-13.55,11.31-20.33,16.97c-4.84,4.04-9.54,8.25-14.5,12.14c-5.23,4.1-9.97,8.97-16.46,11.22
		c-0.14,0.05-0.33,0.08-0.4,0.19c-2.32,3.62-6.76,3.91-9.92,6.25c-1.46,1.08-3.46,1.45-5.24,2.09c-0.56,0.2-1.39,0.04-1.73,0.39
		c-3.33,3.38-8.15,3.85-12.02,6.22c-3.02,1.85-6.32,3.37-9.67,4.55c-12.18,4.28-24.42,8.37-36.66,12.46
		c-1.39,0.46-2.92,0.54-4.4,0.69c-2.21,0.24-4.44,0.39-6.32,0.55c-0.39,0.48-0.56,0.59-0.56,0.7c0.17,8.4-3.31,15.79-6.54,23.21
		c-4.55,10.47-9.18,20.91-14.01,31.25c-2.62,5.61-6.19,10.61-11.16,14.54c-3.3,2.61-6.94,4.44-11.03,4.67
		c-6.86,0.38-13.77,0.68-20.61,0.24c-10.21-0.66-23.78-10.19-26.69-23.64c-0.98-4.53-0.06-8.79,1.33-12.81
		c2.64-7.65,5.98-15.06,8.97-22.6c1.25-3.15,2.33-6.36,3.75-10.26c-3.5,0.61-6.11,1.07-8.71,1.53c-18.12,3.2-35.23-0.53-51.87-7.51
		c-20.56-8.62-37.49-21.98-51.49-39.22c-14.37-17.7-27.12-36.51-36.62-57.22c-8.64-18.84-16.57-38.04-23.92-57.42
		c-7.59-20.03-18.95-37.83-30.34-55.73c-8.09-12.71-17.74-23.98-29.57-33.19c-6.97-5.43-14.32-10.6-22.16-14.61
		c-6.33-3.24-13.58-4.73-20.51-6.7c-4.47-1.27-9.1-2.01-13.65-2.99c-0.88-0.19-1.88-0.22-2.61-0.66c-5.82-3.57-12.41-3.1-18.76-3.33
		c-6.15-0.23-12.33,0.34-18.49,0.51c-2.1,0.06-4.22,0.06-6.31-0.13c-5.38-0.48-8.04-3.28-8.38-8.77
		c-0.34-5.48,0.25-10.85,2.68-15.85c2.03-4.19,3.91-8.53,6.5-12.36c9.77-14.46,19.93-28.68,32.35-41.02
		c9.05-9,18.26-17.88,28.58-25.52c16.19-11.98,34.02-20.19,53.69-24.63c11.91-2.69,23.83-5.23,36.09-4.29
		c18.6,1.44,37.08,3.63,54.27,11.71C250.14,365.19,250.97,365.49,252.44,366.11z M342.91,447.43c3.3,4.59,6.53,9.24,9.9,13.77
		c16.42,22.1,32.07,44.72,45.1,69.03c1.77,3.31,4.07,4.39,7.54,4.36c3.78-0.03,7.23-0.95,9.92-3.59c2.99-2.94,6.13-5.87,8.42-9.33
		c3.58-5.39,6.07-11.42,6.19-18.04c0.11-6.01,0.07-12.04-0.31-18.04c-0.33-5.25-1.13-10.5-4.83-14.7
		c-4.24-4.81-9.38-8.41-15.09-11.25c-2.38-1.19-4.82-1.43-7.44-0.85c-4.39,0.98-8.82,1.8-13.24,2.64c-4.14,0.79-8.63-3.44-8.09-7.61
		c0.07-0.55,0.32-1.41,0.7-1.54c3.34-1.2,5.65-4.43,9.48-4.67c1.94-0.12,3.92-0.31,5.78-0.82c8.22-2.26,15.14-6.2,19.43-14.09
		c4.18-7.68,2.87-15.51,0.91-23.19c-2.92-11.46-10.8-19.52-19.91-26.48c-3.34-2.56-6.85-4.9-10.12-7.54
		c-1.22-0.99-2.18-2.46-2.9-3.89c-0.86-1.71-1.32-3.62-1.97-5.43c-0.55-1.54-0.42-2.75,0.89-4.03c2.91-2.84,6.66-3.63,10-2.55
		c4.78,1.56,7.37-0.72,9.93-3.79c1.53-1.84,3.15-3.72,4.18-5.85c1.23-2.52,2.52-5.3,2.65-8.02c0.25-5.2-0.1-10.45-0.57-15.65
		c-0.85-9.26-1.96-18.49-3.01-27.73c-0.1-0.85-0.23-2-0.8-2.45c-3.14-2.48-5.94-5.55-10.51-5.48c-7.97,0.13-15.94-0.03-23.91,0.16
		c-1.65,0.04-3.46,0.81-4.87,1.74c-4.37,2.84-6.79,7.37-9.7,11.52c-4.15,5.92-4.12,12.34-3.29,19.02c0.37,2.97,0.91,5.99,0.72,8.94
		c-0.26,4.24,1.55,6.58,5.19,8.48c4.51,2.35,8.73,5.27,13,8.07c2.51,1.64,3.95,4.12,4.39,7.07c1.03,6.9-2.54,13.84-8.99,16.62
		c-6.72,2.89-13.83,3.89-21.15,2.93c-0.98-0.13-1.95-0.28-3.07-0.44c3.43,12.6,3.58,24.91,0.77,37.29c-0.7,3.09,0.99,5.92,4.02,7.02
		c1.41,0.51,2.91,0.8,4.28,1.39c6.51,2.78,11.94,6.73,12.67,14.43c0.59,6.26-1.42,9.3-5.93,11.31
		C353.98,448.53,348.73,449.29,342.91,447.43z M456.58,228.27c-11.57,5.99-12.21,16.14-8.13,26.16
		c4.49,11.04,13.62,18.08,23.84,23.72c0.92,0.51,2.23,0.73,2.71,1.5c1.08,1.72,2.39,3.68,2.42,5.56c0.05,2.44-2.73,1.82-4.3,2.24
		c-3.31,0.88-6.95,0.87-10.02,2.22c-6.16,2.71-12.13,5.92-17.99,9.26c-3.58,2.04-6.22,5.03-6.67,9.51
		c-0.75,7.51-1.19,15.02,0.52,22.42c1.75,7.56,5.85,10.93,13.62,11.25c5.71,0.23,11.43,0.09,17.15,0.05
		c3.26-0.02,6.55,0.08,9.77-0.36c3.85-0.53,7.62-1.62,11.44-2.42c9.67-2.04,13.62-7.8,15.31-16.63c0.19-1,0.2-2.11-0.04-3.09
		c-1.38-5.75-3.4-11.29-7.38-15.77c-2.98-3.35-6.32-6.39-9.64-9.41c-3.58-3.25-6.07-7.04-6.72-11.89c-0.4-3.03,0.29-5.17,2.55-5.54
		c5.11-0.83,7.8-4.72,11.2-7.8c2.31-2.09,3.93-4.54,4.64-7.55c1.88-7.98,1.99-16.04,0.61-24.09c-0.37-2.18-1.12-4.36-2.05-6.37
		c-0.98-2.11-2.85-2.98-5.23-2.45c-5.4,1.22-10.76,2.65-16.2,3.6c-7.11,1.25-14.11,1.15-20.22-3.6
		C457.42,228.52,456.95,228.43,456.58,228.27z M570,371.91c-0.29,0-0.59-0.01-0.88-0.01c-1.01,4.05-1.6,8.26-3.11,12.11
		c-3.73,9.5-7.95,18.82-11.86,28.25c-4.25,10.26-8.85,20.41-12.44,30.9c-6.21,18.19-11.32,36.77-18.76,54.53
		c-7.49,17.87-14.93,35.77-23.02,53.38c-5.69,12.39-12.36,24.34-18.71,36.42c-10.22,19.44-21.42,38.31-33.41,56.72
		c-0.95,1.47-1.69,3.2-2.05,4.91c-1.7,8.07-3.26,16.17-4.78,24.28c-0.23,1.24-0.03,2.56-0.03,5.02c3.33-3.82,6.21-6.63,8.5-9.85
		c4.91-6.91,9.71-13.89,14.81-20.69c5.03-6.7,8.91-14.26,13.31-21.44c15.96-26.06,29.52-53.36,41.12-81.6
		c5.79-14.11,10.72-28.59,15.65-43.04c5.23-15.33,10.04-30.81,14.95-46.26c2.41-7.58,4.39-15.31,7.01-22.81
		c5.11-14.64,9.2-29.52,11.48-44.87C568.56,382.56,569.26,377.23,570,371.91z M600.63,330.11c-0.31-0.09-0.62-0.19-0.93-0.28
		c-1.94,2.38-4.46,4.35-4.89,7.74c-0.38,2.98-0.91,5.93-1.25,8.91c-1.73,15.23-4.27,30.32-8.1,45.15
		c-5.89,22.81-11.93,45.58-18.03,68.33c-5.45,20.31-10.88,40.65-19.16,60.04c-4.48,10.49-9.66,20.68-14.5,31.01
		c-6.38,13.6-12.61,27.28-19.14,40.81c-8.57,17.76-18.04,35.08-29.87,50.87c-10.08,13.45-21.05,26.24-31.77,39.2
		c-4.08,4.93-8.3,9.8-12.97,14.15c-3.11,2.9-3.74,5.98-3.52,10.81c3.02-3.57,5.33-6.44,7.79-9.18c7.17-7.99,14.42-15.91,21.58-23.9
		c2.4-2.68,4.6-5.55,6.98-8.26c18.28-20.83,35.79-42.25,50.08-66.09c4.22-7.04,7.81-14.45,11.88-21.57
		c6.56-11.47,11.74-23.6,16.36-35.91c4-10.66,6.98-21.72,10.22-32.66c5.84-19.73,10.96-39.63,15.09-59.81
		c5.64-27.5,11.9-54.86,17.84-82.3c2.06-9.53,4.03-19.07,5.84-28.65C600.68,335.79,600.5,332.92,600.63,330.11z M415.05,232.22
		c0.39-10.21-4.34-18.33-10.18-25.95c-2.14-2.8-5.09-4.78-8.71-5.15c-6.26-0.64-12.54-1.06-18.8-1.62
		c-1.91-0.17-3.01,0.57-3.92,2.26c-2.19,4.11-4.76,8.02-6.82,12.18c-1.02,2.07-1.55,4.51-1.75,6.83
		c-0.68,7.91-0.88,15.87-1.76,23.75c-0.45,4.02-0.22,7.61,1.78,11.17c0.86,1.52,1.05,3.41,1.68,5.07c0.8,2.1,1.69,4.2,4.28,4.66
		c9.45,1.67,18.71,1.91,27.68-2.51c7.98-3.93,12.8-10.26,14.85-18.69C414.33,240.32,414.52,236.23,415.05,232.22z M352.74,685.24
		c0.24-0.3,0.47-0.61,0.71-0.91c-0.67-0.8-1.32-1.61-2.01-2.38c-10.74-11.99-21.13-24.3-29.05-38.38
		c-9.79-17.41-19.36-34.96-28.63-52.65c-8.3-15.85-16.18-31.93-26.51-46.6c-5.09-7.22-10.25-14.55-16.41-20.82
		c-8.09-8.23-17.1-15.57-25.88-23.09c-17.3-14.82-35.61-28.13-56.73-37.12c-0.93-0.39-1.92-0.64-2.88-0.95
		c7.41,5.15,14.98,9.76,22.29,14.76c15.65,10.69,28.53,24.28,40.71,38.7c14.99,17.74,28.75,36.25,39.51,56.9
		c7.77,14.92,15.52,29.86,23.77,44.52c4.69,8.34,9.87,16.49,15.7,24.07c9,11.69,19.48,22.1,30.51,31.9
		C342.61,677.41,347.76,681.23,352.74,685.24z M476.44,713c2.65,0.12,4.68-0.06,6.84-1.77c2.69-2.12,6.41-2.94,9.12-5.04
		c9.64-7.48,18.17-16.17,26.24-25.31c9.78-11.07,17.88-23.38,26.33-35.44c21.38-30.54,39.14-63.05,53.24-97.54
		c10.54-25.79,17.66-52.65,24.56-79.57c0.29-1.14,0.23-2.39,0.23-3.59c-0.01-7.52,0.07-15.05-0.11-22.56
		c-0.1-3.95-0.66-7.89-1.01-11.84c-0.35-0.05-0.7-0.09-1.05-0.14c-0.4,1.63-0.92,3.25-1.17,4.91c-4.3,29.23-11.86,57.6-22.33,85.22
		c-0.37,0.98-0.79,1.94-1.2,2.9c-1.17,2.75-2.5,5.45-3.49,8.27c-2.04,5.8-3.82,11.7-5.86,17.51c-4.73,13.48-10.99,26.29-17.03,39.2
		c-5.86,12.52-11.6,25.07-19.17,36.73c-8.86,13.64-18.67,26.54-28.88,39.17c-11.25,13.92-23.09,27.3-36.27,39.45
		C482.36,706.38,479.66,709.59,476.44,713z M353.33,712.53c-1.23-0.99-2.42-2.02-3.68-2.97c-10.66-8.05-20.09-17.44-28.82-27.45
		c-8.95-10.26-17.24-21.11-25.66-31.82c-11.25-14.3-21.94-29.02-31.34-44.61c-13.2-21.9-27.48-43.09-42.43-63.82
		c-0.66-0.92-1.45-1.75-2.18-2.62c-0.28,0.74-0.16,1.16,0.01,1.55c5.57,12.64,11.64,25.09,16.62,37.96
		c9.26,23.93,20.18,46.95,35.32,67.75c6.98,9.59,14.03,19.21,22.01,27.95c11.63,12.73,25.69,22.6,40.73,31.01
		C339.93,708.82,346.31,711.34,353.33,712.53z M337.9,637.99c0.24-0.12,0.48-0.24,0.72-0.36c-0.66-1.44-1.26-2.91-1.98-4.32
		c-3.61-7.09-7.37-14.1-10.85-21.25c-5.16-10.61-9.79-21.48-15.23-31.93c-14.77-28.4-30.79-56.1-47.63-83.32
		c-8.02-12.95-16.96-25.19-28.12-35.66c-6.28-5.89-13.13-11.08-21.1-14.42c-11.23-4.71-22.79-8.44-34.82-10.59
		c-5.71-1.02-11.43-1.19-17.24-0.37c1.08,0.91,2.23,1.48,3.39,2.01c21.08,9.69,41.47,20.23,58.61,36.52
		c14.84,14.1,29.38,28.38,42.29,44.27c12.67,15.58,22.73,32.86,32.53,50.3c10.68,18.99,21.29,38.02,31.99,56.99
		C332.8,629.98,335.42,633.95,337.9,637.99z M611.41,367.19c-0.53,1.25-0.7,1.5-0.74,1.76c-3.85,26.03-12.57,50.98-17.26,76.84
		c-1.71,9.41-4.83,18.56-7.15,27.87c-3.47,13.99-7.02,27.96-10.13,42.03c-6.59,29.75-17.98,57.6-32.79,84.11
		c-9.11,16.31-19.63,31.68-31.14,46.4C492.79,671.04,471.17,693.74,447,714c-1.9,1.59-3.8,3.18-5.7,4.77c0.17,0.3,0.34,0.6,0.51,0.9
		c1.45-0.56,3.06-0.87,4.31-1.72c3.98-2.69,7.94-5.45,11.72-8.43c11.91-9.4,23.93-18.66,33.9-30.26
		c13.93-16.21,26.78-33.23,39.11-50.67c8.7-12.31,16.42-25.14,22.25-39.1c3.19-7.62,6.75-15.09,10.31-22.55
		c8.75-18.34,16.48-37.09,21.95-56.68c4.44-15.91,8.53-31.91,12.6-47.92c3.58-14.11,7.05-28.26,10.31-42.45
		c2.02-8.77,4.08-17.58,5.17-26.49c0.82-6.66,0.23-13.5,0-20.26C613.39,371.45,612.34,369.8,611.41,367.19z M112.83,425.36
		c2.5-0.69,4.05-1.17,5.62-1.55c4.67-1.13,9.3-2.57,14.03-3.24c8.6-1.21,17.28-1.88,25.91-2.9c11.15-1.31,22.18-0.35,33.14,1.68
		c12.63,2.34,23.92,8.01,34.57,14.86c16.72,10.76,29.56,25.54,40.41,41.89c11.05,16.65,21.12,33.92,30.83,51.42
		c10.96,19.75,20.89,39.94,29.95,60.6c3.02,6.87,5.99,13.8,9.6,20.37c9.2,16.72,18.75,33.25,28.17,49.85
		c0.88,1.55,1.86,3.03,2.92,4.75c0.17-0.62,0.37-0.94,0.3-1.17c-0.39-1.13-0.82-2.25-1.3-3.35c-12.13-28.16-24.82-56.05-38.88-83.33
		c-15.28-29.63-31.19-58.88-49.34-86.86c-3.84-5.92-7.69-11.86-12.02-17.41c-6.27-8.04-12.97-15.76-19.54-23.56
		c-1.64-1.95-3.43-3.77-5.28-5.53c-8.99-8.54-19.36-15.2-29.78-21.81c-9.38-5.95-19.53-10.03-30.22-12.65
		c-5.19-1.27-10.67-1.79-16.02-1.85c-4.75-0.05-9.52,1-14.28,1.59c-13.82,1.72-25.8,7.66-36.72,16.03
		C114.38,423.6,113.97,424.16,112.83,425.36z M313.37,408.41c6.4-10.87,8.48-22.36,9.73-34.03c0.36-3.34,0.28-6.96-0.63-10.16
		c-2.1-7.41-7.61-11.97-14.46-14.97c-6.41-2.8-12.93-5.34-19.31-8.19c-2.28-1.02-3.63-0.51-4.89,1.43c-4.99,7.67-7.13,16-6.44,25.17
		c0.57,7.65,4.47,12.79,10.37,17.46c7.74,6.12,14.74,13.18,22.04,19.84C310.98,406.06,312.12,407.21,313.37,408.41z M405.68,112.05
		c-7.93,2.64-15.54,5.18-23.33,7.77c-0.35,4.84-1.12,9.78-0.98,14.69c0.27,8.99-0.95,17.64-4.09,26.06
		c-1.41,3.77-0.25,6.98,3.3,8.57c3.54,1.59,7.26,2.77,10.91,4.1c1.83,0.66,3.8,1.04,5.51,1.91c4.33,2.22,8.6,1.93,12.97,0.41
		c1.21-8.62,3.61-16.63,8.21-23.84c1.35-2.12,0.78-3.98,0.07-5.97c-3.6-10.03-7.19-20.06-10.82-30.07
		C406.99,114.45,406.3,113.31,405.68,112.05z M473.39,368.49c0-0.06,0-0.12-0.01-0.18c-3.31,0-6.62-0.02-9.92,0.01
		c-0.89,0.01-1.84-0.01-2.65,0.29c-5.26,1.92-10.2,4.44-14.4,8.2c-0.86,0.77-1.81,1.77-2.07,2.82c-1.1,4.35-1.78,8.81-2.94,13.15
		c-1.53,5.75,0.28,10.61,3.36,15.3c1.33,2.02,3.03,3.03,5.39,3.63c6.63,1.68,12.78-0.11,18.94-2.11
		c15.3-4.98,21.65-15.14,23.35-30.39c0.67-5.97-5.31-12.42-11.41-11.16C478.56,368.56,475.94,368.36,473.39,368.49z M486.77,173.63
		c0-0.75,0.04-1.5-0.01-2.25c-0.41-7.11-6.27-14.27-13.14-16.08c-3.53-0.93-5.82,0.01-6.96,2.93c-2.43,6.25-6.91,10.68-13.14,12.64
		c-5.63,1.78-9.76,4.42-11.07,10.46c-0.15,0.71-0.54,1.44-1.01,1.99c-2.13,2.47-1.72,5.25-0.24,7.53c2.99,4.6,5.62,9.73,11.67,11.24
		c0.69,0.17,1.27,0.76,1.89,1.16c7.84,4.99,19.9,3.4,26.08-3.52c0.78-0.87,1.26-2.01,1.86-3.04
		C486.94,189.52,485.96,181.41,486.77,173.63z M354.7,113.05c-1.74-0.7-3.22-1.51-4.8-1.88c-1.73-0.4-3.44-0.48-4.95,1.12
		c-5.67,6.01-11.59,11.78-17.12,17.91c-1.94,2.15-3.25,4.98-4.47,7.67c-1.97,4.33-1.74,9.06-2.16,13.7
		c-0.62,6.9,1.68,10.73,8.46,12.51c3.19,0.84,6.56,1.09,9.65,2.18c3.1,1.1,4.72-0.21,6.44-2.4c4.58-5.83,7-12.54,8.28-19.73
		C355.83,133.98,355.04,123.77,354.7,113.05z M442.06,131.17c4.03-0.53,7.71-0.91,11.34-1.56c1.22-0.22,2.65-0.85,3.41-1.76
		c5-6.02,6.83-13.02,5.14-20.63c-1.01-4.51-2.53-9-4.46-13.19c-1.54-3.34-3.68-6.6-6.24-9.21c-3.49-3.56-7.96-4.55-12.83-2.47
		c-7.8,3.33-12.15,9.3-13.85,17.47C434.81,108.08,439.57,119.22,442.06,131.17z M304.5,211.94c0.86,2.81,1.54,5.7,2.61,8.42
		c2.13,5.42,6.58,8.74,11.18,11.97c2.51,1.76,5.15,2.46,8.05,2.04c5.13-0.74,9.78-2.69,13.96-5.82c1.61-1.2,2.46-2.63,2.13-4.59
		c-0.52-3.09-0.95-6.21-1.79-9.22c-1.56-5.62-3.36-11.17-5.1-16.74c-1.98-6.34-8.22-9.22-14.26-6.38
		c-3.52,1.66-6.84,3.72-10.22,5.66c-0.61,0.35-1.16,0.92-1.56,1.51C306.86,202.7,304.78,206.82,304.5,211.94z M455.78,603.01
		c0.47,0.16,0.95,0.32,1.42,0.48c4.43-7.98,9.12-15.83,13.23-23.98c3.85-7.63,7.18-15.53,10.55-23.4
		c5.85-13.65,13.11-26.7,17.12-41.12c0.72-2.6,1.51-5.21,2.58-7.68c5.96-13.8,10.52-28.11,15.24-42.36c1.17-3.52,2.27-7.07,3.4-10.6
		c-1.04,0.44-1.58,1.08-1.96,1.8c-6.73,12.75-14.06,25.22-20,38.32c-10.33,22.79-21.72,45.16-29.46,69.05
		C463.65,576.63,459.81,589.85,455.78,603.01z M198.02,396.12c2.45,1.1,4.9,2.18,7.33,3.32c22.88,10.71,41.83,26.63,58.26,45.45
		c20.54,23.52,37.8,49.39,52.35,77.06c5.59,10.64,11.49,21.11,17.27,31.65c0.33,0.61,0.81,1.14,1.22,1.7
		c-4.5-12.36-9.31-24.49-14.93-36.22c-4.14-8.65-9.42-16.76-14.07-25.16c-9.2-16.6-19.42-32.55-30.63-47.85
		c-5.07-6.92-10.37-13.74-17.12-19.12c-7.28-5.8-14.77-11.37-22.38-16.74c-3.53-2.49-7.53-4.34-11.41-6.32
		c-2.81-1.43-5.73-2.65-8.64-3.86C209.71,397.75,204.12,395.61,198.02,396.12z M367.33,81.9c1.92,1.09,3.66,2.22,5.51,3.09
		c4.72,2.21,9.82,2.25,14.92,2.62c7.97,0.57,14.19-2.79,20-7.62c2.41-2.01,3.89-4.52,4.65-7.5c1.11-4.37,0.38-8.64-0.93-12.83
		c-0.23-0.74-1.01-1.43-1.71-1.89c-1.85-1.24-3.72-2.51-5.73-3.47c-1.99-0.95-4.13-2.1-6.25-2.19c-6.77-0.29-12.91,2.22-17.41,7
		C374.41,65.47,370.58,73.34,367.33,81.9z M322.93,308.02c-0.62-5.03-1.15-10.21-1.93-15.36c-0.96-6.35-2.53-12.64-3.06-19.03
		c-0.26-3.2-1.18-5.02-4.02-6.09c-1.68-0.64-3.29-1.5-5-2.01c-2.79-0.83-5.13,0.12-6.33,2.71c-5.44,11.78-9.85,23.79-8.39,37.17
		c0.24,2.21,0.77,3.56,2.87,4.46C305.79,313.57,314.2,313.57,322.93,308.02z M446.61,452.75c0.17,3.72,0.33,7.44,0.51,11.16
		c0.03,0.59-0.03,1.26,0.21,1.77c2.74,5.88,6.09,11.25,12.41,14.74c7.62-16.35,17.48-30.96,27.59-46.1
		c-11.69-1.41-21.12,2.33-30.05,7.96c-0.37,0.23-0.6,0.67-0.93,0.98C453.05,446.48,449.74,449.7,446.61,452.75z M401.41,793.04
		c4.27-2.06,6.63-4.7,8.68-7.74c4.07-6.03,6.64-12.76,8.93-19.57c0.99-2.94,1.35-6.15,1.64-9.27c0.26-2.85-0.64-5.57-3.51-6.69
		c-2.74-1.07-5.09,0.44-6.73,2.51c-1.56,1.97-2.93,4.2-3.87,6.53c-1.61,4.03-3.13,8.15-4.11,12.37c-1.08,4.65-1.71,9.44-2.11,14.2
		C400.14,787.67,400.95,790.02,401.41,793.04z M543.96,672.46c0.24,0.24,0.49,0.48,0.73,0.72c1.22-1.08,2.62-2.01,3.63-3.26
		c4.41-5.5,8.77-11.04,13.04-16.65c15.57-20.47,26.96-43.36,38.14-66.35c3.48-7.15,6.35-14.6,9.2-22.03
		c1.72-4.49,2.87-9.21,4.28-13.82c-3.49,5.55-6.48,11.23-9.41,16.93c-1.67,3.26-3.29,6.55-4.85,9.86
		c-3.91,8.31-7.4,16.84-11.74,24.91c-7.31,13.57-14.99,26.94-22.83,40.21c-3.85,6.51-7.67,13.07-12.68,18.86
		C548.65,665.11,546.44,668.91,543.96,672.46z M518.96,391.93c0.36,0.18,0.71,0.35,1.07,0.53c2.05-2.72,5-4.8,6.04-8.32
		c-2.03-1.24-3.51-1.01-4.37,0.86C520.68,387.26,519.87,389.62,518.96,391.93z"/>
	<path class="st3" d="M24,517.29c0,0-10.01,3.28-10.63,4.48c-0.63,1.2,15.64,0.62,0,4.37c-11.1,2.66,1.88,8.49-6.88,10.1
		c-8.76,1.61,6.26,1.35,20.64,2.08c18.61,0.94,613.04,0.73,613.04,0.73s123.86,0.38,126.36-0.16s9.38-4.01,1.88-4.58
		c-7.51-0.57,24.58-3.74,6.26-11.77c-9.38-4.11-1.25-5.31-1.25-5.31l-11.89-0.1c0,0-271.58-0.02-276.58,0.51
		c-5,0.53-92.16-0.64-118.85-0.1c-26.69,0.53-84.38-0.47-102.59-0.31c-14.3,0.12-50.04,0.41-50.04,0.41s-27.43-0.56-41.2-0.41
		c-5.54,0.06-26.9-0.16-29.4-0.16s-53.17-0.21-53.17-0.21l-48.17,0.31"/>
	<path class="st3" d="M23.98,725.04c0,0-10.01,6.07-10.63,8.29c-0.63,2.22,15.64,1.16,0,8.09c-11.1,4.93,1.88,15.71-6.88,18.69
		s6.26,2.51,20.64,3.85c18.61,1.74,613.04,1.35,613.04,1.35s123.86,0.7,126.36-0.29s9.38-7.42,1.88-8.48
		c-7.51-1.06,24.58-6.91,6.26-21.78c-9.38-7.61-1.25-9.83-1.25-9.83l-11.89-0.19c0,0-271.58-0.04-276.58,0.95
		c-5,0.99-92.16-1.18-118.85-0.19s-84.38-0.86-102.59-0.57c-14.3,0.23-50.04,0.76-50.04,0.76s-27.43-1.04-41.2-0.75
		c-5.54,0.12-26.9-0.29-29.4-0.29c-2.5,0-53.17-0.39-53.17-0.39l-48.17,0.58"/>
	<polygon class="st4" points="24.89,574.87 33.64,696.23 704.24,711.24 743.02,643.68 720.5,574.87 	"/>
	<g>
		<path class="st5" d="M8.72,517.11c63.5-2.43,127.86-3.14,191.42-2.56c30.85,0.46,64.73,1.51,95.71,1.78
			c47.57,0.44,96-0.89,143.56-1.67c111.34-1.45,223.73-1.41,334.98,2.46c0,0,0,0.7,0,0.7c-111.24,3.87-223.65,3.91-334.98,2.46
			c-47.57-0.79-95.99-2.11-143.56-1.67c-31,0.27-64.82,1.32-95.71,1.78c-30.95,0.44-64.66,0.15-95.71-0.2
			c-15.95-0.19-31.9-0.47-47.85-0.85c-15.95-0.37-31.9-0.83-47.85-1.51C8.72,517.81,8.72,517.11,8.72,517.11L8.72,517.11z"/>
	</g>
	<path class="st6" d="M23.06,505.01l-9.14,7.37c0,0,6.61,4.37,4.14,3.37c-2.47-1,618.08-1.59,618.08-1.59s117.6,2.37,120.11,2.07
		s13.35-4.73,13.35-4.73l-13.98-3.97l5.23-4.69c0,0-224.78,0.37-229.79,0.67c-5,0.3-85.08,0.3-111.77,0.59
		c-26.69,0.3-159.07-2.58-158.35-1.73c0.72,0.85-91.87,3.21-91.87,3.21s-51.38,1.73-51.55,0.57s-17.68-1.46-20.18-1.46
		s-31.69,0.89-31.69,0.89L23.06,505.01"/>
	<g>
		<path class="st7" d="M757.28,539.11l9.14-7.37c0,0-6.61-4.37-4.14-3.37c2.47,1-618.08,1.59-618.08,1.59S26.6,527.6,24.1,527.9
			s-13.35,4.73-13.35,4.73l13.98,3.97l-5.23,4.69c0,0,224.78-0.37,229.79-0.67c5-0.3,85.08-0.3,111.77-0.59s159.07,2.58,158.35,1.73
			c-0.72-0.85,91.87-3.21,91.87-3.21s51.38-1.73,51.55-0.57c0.16,1.16,17.68,1.46,20.18,1.46s31.69-0.89,31.69-0.89L757.28,539.11"
			/>
	</g>
	<path class="st8" d="M21.92,521.62l-9.14,5.31c0,0,6.61,3.15,4.14,2.43S635,528.21,635,528.21s117.6,1.71,120.11,1.49
		c2.5-0.21,13.35-3.41,13.35-3.41l-13.98-2.86l5.23-3.38c0,0-224.78,0.27-229.79,0.48c-5,0.21-85.07,0.21-111.77,0.43
		c-26.69,0.21-159.07-1.86-158.35-1.25s-91.87,2.32-91.87,2.32s-51.38,1.25-51.55,0.41c-0.16-0.84-17.68-1.05-20.18-1.05
		s-31.69,0.64-31.69,0.64L21.92,521.62"/>
	<path class="st7" d="M25.98,735.54l-9.14,7.37c0,0,6.61,4.37,4.14,3.37s618.08-1.59,618.08-1.59s117.6,2.37,120.11,2.07
		c2.5-0.3,13.35-4.73,13.35-4.73l-13.98-3.97l5.23-4.69c0,0-224.78,0.37-229.79,0.67c-5,0.3-85.08,0.3-111.77,0.59
		c-26.69,0.3-159.07-2.58-158.35-1.73s-91.87,3.21-91.87,3.21s-51.38,1.73-51.55,0.57c-0.16-1.16-17.68-1.46-20.18-1.46
		c-2.5,0-31.69,0.89-31.69,0.89L25.98,735.54"/>
	<g>
		<path class="st8" d="M755.03,733.97l9.14-7.37c0,0-6.61-4.37-4.14-3.37s-618.08,1.59-618.08,1.59s-117.6-2.37-120.11-2.07
			c-2.5,0.3-13.35,4.73-13.35,4.73l13.98,3.97l-5.23,4.69c0,0,224.78-0.37,229.79-0.67c5-0.3,85.07-0.3,111.77-0.59
			c26.69-0.3,159.07,2.58,158.35,1.73c-0.72-0.85,91.87-3.21,91.87-3.21s51.38-1.73,51.55-0.57c0.16,1.16,17.68,1.46,20.18,1.46
			s31.69-0.89,31.69-0.89L755.03,733.97"/>
	</g>
	<path class="st2" d="M106.38,527.18c7.58,2.07,15.04,1.47,22.54,0.61c4.01-0.46,8.1-0.18,12.16-0.16
		c6.61,0.03,13.23,0.42,19.82,0.12c8.6-0.4,17.12-0.25,25.67,0.82c3.85,0.48,7.85,0.64,11.7,0.2c9.81-1.12,19.52-0.05,29.26,0.7
		c1.2,0.09,2.4,0.26,3.6,0.26c15.78-0.08,31.56-0.24,47.33-0.23c4.66,0,9.31,0.48,13.97,0.74c8.25,0.46,16.51,0.88,24.76,1.41
		c7.49,0.48,14.97,1.15,22.46,1.64c3.45,0.22,6.91,0.23,10.37,0.31c7.66,0.18,15.33,0.37,22.99,0.51c2.1,0.04,4.23,0.11,6.3-0.16
		c8.56-1.13,17.09-0.93,25.64,0.03c2.68,0.3,5.4,0.4,8.1,0.41c10.82,0.05,21.65,0.01,32.47,0.02c10.38,0.02,20.79-0.41,31.13,0.21
		c15.35,0.93,30.64-0.88,45.97-0.33c9.75,0.35,19.53-0.25,29.3-0.5c4.06-0.1,8.11-0.42,12.17-0.6c3.6-0.16,7.24-0.61,10.81-0.31
		c9.35,0.8,18.62,0.31,27.92-0.66c3.44-0.36,6.91-0.54,10.36-0.5c15.94,0.18,31.9,0.96,47.83,0.59c14.91-0.34,29.73,0.88,44.6,1.19
		c10.08,0.21,20.15,0.36,30.12,2.07c1.33,0.23,2.77,0.38,3.89,1.04c0.91,0.53,2.03,1.82,1.96,2.67c-0.1,1.11-1.09,2.43-2.08,3.09
		c-0.9,0.6-2.31,0.61-3.49,0.58c-4.06-0.1-8.12-0.27-12.17-0.54c-3.75-0.25-7.48-0.97-11.22-0.96c-15.04,0.05-30.03-1.95-45.09-0.95
		c-2.69,0.18-5.41-0.09-8.12-0.16c-13.38-0.33-26.75-0.72-40.13-0.95c-3.45-0.06-6.9,0.39-10.36,0.55
		c-7.66,0.35-15.32,0.77-22.99,0.97c-10.52,0.28-21.05,0.4-31.57,0.55c-2.4,0.04-4.81-0.14-7.22-0.09
		c-7.66,0.16-15.31,0.36-22.97,0.59c-2.4,0.07-4.84,0.64-7.19,0.37c-7.39-0.86-14.7-0.02-22.05,0.42
		c-5.09,0.31-10.21,0.07-15.32,0.05c-11.28-0.06-22.56-0.11-33.85-0.23c-4.21-0.04-8.42-0.38-12.62-0.4
		c-4.8-0.02-9.61,0.33-14.41,0.22c-6.75-0.16-13.49-0.73-20.23-0.86c-5.24-0.1-10.48,0.22-15.73,0.32
		c-4.78,0.09-9.56,0.23-14.34,0.13c-3.9-0.08-7.82-0.9-11.68-0.63c-9.37,0.67-18.62-0.24-27.91-1.11
		c-6.87-0.64-13.79-0.72-20.69-1.03c-6.61-0.3-13.22-0.6-19.83-0.83c-4.21-0.15-8.42-0.14-12.63-0.25
		c-8.56-0.23-17.11-0.54-25.67-0.74c-2.4-0.06-4.8,0.23-7.2,0.21c-6.44-0.05-12.89-0.11-19.33-0.29
		c-6.61-0.18-13.21-0.58-19.82-0.73c-7.81-0.18-15.63-0.2-23.45-0.27c-5.86-0.05-11.73-0.03-17.59-0.08
		c-8.27-0.08-16.54-0.2-24.81-0.29c-1.5-0.02-3.01-0.04-4.51,0.04c-3.61,0.19-7.21,0.66-10.81,0.62
		c-12.17-0.11-24.32-0.22-36.34,2.28c-2.46,0.51-5.1,0.04-7.66,0.15c-6.15,0.27-12.29,0.75-18.45,0.9
		c-7.52,0.18-15.04,0.06-22.56,0.14c-4.35,0.05-8.7,0.22-13.05,0.34c-3.15,0.09-6.31,0.28-9.46,0.24c-1.98-0.03-3.91-0.5-5.05-3.28
		c0.97-0.58,1.95-1.55,3.07-1.77c3.38-0.67,6.81-1.2,10.24-1.51c6.73-0.61,13.48-1.08,20.22-1.5c8.1-0.5,16.21-0.9,24.32-1.33
		c2.25-0.12,4.52-0.42,6.76-0.27c7.74,0.51,15.27-1.13,22.86-2.12c0.85-0.11,1.66-0.48,2.46-1c-4.83-0.91-9.74-1.25-14.44-0.07
		c-6.8,1.71-13.73,1.32-20.58,2.02c-2.84,0.29-5.71,0.16-8.56,0.39c-11.41,0.89-22.76-0.05-34.12-0.86
		c-2.04-0.15-4.09-0.19-6.14-0.29c-0.05-0.35-0.09-0.71-0.14-1.06c0.99-0.23,1.99-0.7,2.97-0.66c4.65,0.2,9.29,0.57,13.94,0.83
		c5.36,0.3,10.72,0.67,16.09,0.77c2.53,0.05,5.06-0.48,7.6-0.72c2.68-0.26,5.37-0.71,8.06-0.69c8.14,0.05,16.17-0.92,24.15-2.39
		c0.88-0.16,1.81-0.4,2.68-0.3c9.2,1.05,18.26-0.28,27.35-1.34c2.96-0.35,5.99-0.21,8.99-0.21c7.81,0,15.63,0.03,23.44,0.07
		c8.12,0.05,16.23,0.21,24.35,0.16c5.7-0.04,11.4-0.47,17.1-0.54c8.25-0.1,16.51-0.1,24.76-0.02c3.6,0.04,7.29-0.07,10.77,0.68
		c5.46,1.18,10.76,0.05,16.14-0.15c5.09-0.19,10.2-0.07,15.3-0.02c7.81,0.07,15.62,0.14,23.42,0.3c5.09,0.11,10.18,0.42,15.27,0.58
		c4.66,0.15,9.32,0.15,13.98,0.33c10.06,0.39,20.11,0.94,30.16,1.26c5.38,0.17,10.78,0.02,16.16-0.06
		c6.16-0.1,12.33-0.35,18.49-0.42c17.89-0.2,35.79-0.47,53.68-0.44c7.66,0.01,15.31,0.72,22.97,1.09c2.7,0.13,5.45,0.57,8.09,0.21
		c6.17-0.86,12.22-0.32,18.39,0.15c9.12,0.69,18.32,0.66,27.49,0.51c8.4-0.14,16.78-1.05,25.18-1.24
		c10.22-0.22,20.45,0.01,30.68-0.04c7.66-0.04,15.31-0.17,22.97-0.35c5.1-0.12,10.2-0.53,15.31-0.59
		c11.73-0.16,23.46-0.21,35.19-0.26c8.86-0.04,17.72,0.05,26.58-0.04c3.6-0.04,7.2-0.64,10.79-0.54c4.94,0.13,9.87,0.7,14.81,1.05
		c2.25,0.16,4.51,0.45,6.75,0.36c12.05-0.48,24.02,0.15,35.98,1.74c5.65,0.75,11.4,0.71,17.09,1.1c2.03,0.14,4.05,0.48,6.33,0.77
		c-0.86,2.49-2.5,2.23-3.86,2.14c-6.3-0.42-12.58-0.94-18.88-1.42c-11.38-0.87-22.68-2.34-34.16-2.2
		c-15.77,0.18-31.56-0.71-47.34-0.82c-11.88-0.08-23.76,0.41-35.64,0.55c-14.29,0.16-28.57,0.21-42.86,0.35
		c-1.8,0.02-3.58,0.47-5.38,0.51c-4.64,0.1-9.3,0.25-13.94,0.1c-10.22-0.33-20.41-0.51-30.61,0.78c-4.45,0.56-9.01,0.31-13.52,0.34
		c-8.57,0.05-17.14,0.12-25.71,0.01c-2.99-0.04-5.97-0.63-8.96-0.88c-1.79-0.15-3.66-0.45-5.39-0.15
		c-7.66,1.34-15.25,0.74-22.89-0.17c-9.61-1.15-19.22-0.61-28.82,0.33c-1.2,0.12-2.4,0.25-3.6,0.24
		c-15.79-0.17-31.58-0.44-47.37-0.51c-4.04-0.02-8.08,0.93-12.11,0.83c-7.8-0.2-15.58-0.89-23.38-1.25
		c-5.85-0.27-11.71-0.41-17.57-0.5c-16.39-0.24-32.77-0.37-49.16-0.66c-4.49-0.08-8.97-0.78-13.46-0.85
		c-3.28-0.05-6.57,0.65-9.86,0.67c-4.33,0.02-8.66-0.34-13-0.48c-4.95-0.16-9.91-0.26-14.87-0.36c-8.41-0.18-16.83-0.35-25.24-0.51
		c-1.2-0.02-2.39-0.03-3.59,0.03c-3.6,0.18-7.2,0.58-10.8,0.58c-17.6,0-35.19-0.23-52.79-0.09
		C115.84,525.56,111.11,526.6,106.38,527.18z"/>
	<path class="st2" d="M750.08,730.21c1.91,0.78,4.76-0.3,5.57,2.73c-2.56,2.14-9.01,4.7-12.1,4.68c-9.03-0.08-18.01,0.48-26.99,1.51
		c-4.9,0.56-9.92,0.4-14.87,0.21c-9.92-0.39-19.83-1.15-29.75-1.52c-12.62-0.47-25.25-0.72-37.88-1.02
		c-9.48-0.22-18.96-0.22-28.43-0.61c-8.56-0.35-17.11-1.14-25.67-1.63c-4.5-0.26-9.03-0.52-13.53-0.38
		c-13.43,0.43-26.72-1.49-40.08-2.09c-5.1-0.23-10.21-0.49-15.32-0.44c-9.62,0.1-19.21-0.06-28.84-0.62
		c-11.52-0.66-23.14-0.1-34.68,0.51c-7.57,0.4-14.99-0.06-22.47-1.05c-4.6-0.61-9.29-0.77-13.94-0.82
		c-10.38-0.12-20.79,0.37-31.14-0.18c-9.66-0.52-19.21,0.05-28.81,0.76c-5.09,0.38-10.22,0.08-15.34,0.12
		c-11.43,0.09-22.86,0.1-34.29,0.34c-5.25,0.11-10.51,1.11-15.74,0.94c-10.39-0.34-20.73-0.22-31.1,0.6
		c-5.83,0.46-11.73,0.1-17.59,0.22c-6.16,0.13-12.32,0.53-18.48,0.57c-10.07,0.07-20.15,0.26-30.2-0.21
		c-8.3-0.39-16.49-0.4-24.73,0.87c-4.28,0.66-8.7,0.47-13.06,0.5c-13.68,0.09-27.36,0.02-41.04,0.18
		c-7.23,0.08-14.38,0.04-21.56-1.31c-4.23-0.8-8.68-0.53-13.04-0.56c-6.77-0.04-13.54,0.13-20.3,0.09c-2.4-0.01-4.89-0.03-7.17-0.67
		c-5.62-1.58-11.35-1.11-17.04-1.29c-1.61-0.05-3.25,0.45-4.84,0.84c-4.18,1.02-8.3,1.43-12.25-0.78c-0.37-0.21-0.67-0.55-0.97-0.86
		c-0.09-0.09-0.07-0.29-0.12-0.54c3.31-3.5,7.09-5.42,12.09-3.69c0.95,0.33,2.08,0.22,3.12,0.2c4.93-0.11,9.91-0.74,14.78-0.29
		c11.13,1.04,22.24,0.56,33.37,0.36c6.58-0.12,13.17,0.73,19.76,0.98c4.65,0.17,9.31,0.16,13.96,0.06
		c12.33-0.25,24.65-0.5,36.98-0.93c9.01-0.31,18.01-0.9,27.01-1.34c3.15-0.15,6.3-0.37,9.45-0.3c10.22,0.23,20.44,0.98,30.65,0.78
		c17.12-0.35,34.23-1.31,51.35-1.96c3.9-0.15,7.82-0.2,11.73-0.06c9.64,0.35,19.22-0.24,28.83-1.05c8.82-0.75,17.74-0.31,26.61-0.5
		c9.47-0.2,18.93-0.66,28.39-0.74c12.03-0.11,24.07-0.01,36.1,0.09c8.27,0.07,16.54,0.21,24.81,0.47c2.53,0.08,5.04,0.89,7.58,1.01
		c6.14,0.3,12.33,0.95,18.43,0.47c12.94-1.02,25.8-1.13,38.75-0.09c8.22,0.66,16.54,0.06,24.8,0.35c10.81,0.39,21.6,1.11,32.4,1.68
		c3.15,0.17,6.3,0.37,9.46,0.47c9.62,0.28,19.31-0.1,28.86,0.91c16.51,1.76,33.04,1.51,49.58,1.8c11.43,0.2,22.86,0.36,34.28,0.79
		c10.82,0.41,21.61,1.39,32.43,1.65c8.1,0.2,16.21-0.36,24.32-0.52c2.82-0.06,6.03,0.94,8.38-0.1c5.46-2.42,11.44-1,16.86-3.15
		C749.47,725.84,749.87,726.53,750.08,730.21z"/>
	<path class="st2" d="M18.57,505.4c1.45-0.43,2.96-1.35,4.37-1.21c11,1.06,21.91-0.13,32.85-0.99c5.66-0.45,11.39,0.03,17.08-0.13
		c2.54-0.07,5.16-0.35,7.57-1.11c7.24-2.28,14.58-1.6,21.93-1.17c2.4,0.14,4.8,0.24,7.2,0.22c13.38-0.12,26.75-0.21,40.13-0.46
		c5.24-0.1,10.49-0.51,15.72-0.88c1.94-0.14,3.86-0.77,5.8-0.82c16.23-0.44,32.46-0.83,48.69-1.16c7.06-0.14,14.13-0.18,21.2-0.14
		c5.11,0.03,10.22,0.23,15.32,0.39c6.76,0.22,13.51,0.59,20.27,0.7c15.64,0.25,31.27,0.42,46.91,0.54c4.35,0.03,8.7-0.19,13.05-0.3
		c2.71-0.07,5.41-0.18,8.12-0.2c8.26-0.06,16.53-0.24,24.79-0.08c9.46,0.18,18.91,0.7,28.37,1.01c3.31,0.11,6.62,0.08,9.92,0.01
		c12.33-0.25,24.66-0.31,36.97-0.88c12.17-0.57,24.33-1.13,36.51-0.46c2.23,0.12,4.49-0.32,6.74-0.47
		c7.79-0.54,15.53-1.18,23.39-0.24c7.16,0.86,14.35,0.14,21.55-0.96c5.58-0.86,11.38-0.39,17.08-0.43
		c6.61-0.04,13.22,0.04,19.83-0.01c3.31-0.02,6.61-0.33,9.92-0.33c16.85-0.01,33.69,0.02,50.54,0.07c2.1,0.01,4.21,0.19,6.3,0.42
		c6.73,0.76,13.42,0.99,20.23,0.33c5.62-0.54,11.37,0.27,17.06,0.5c7.06,0.28,14.12,0.92,21.17,0.77c9.8-0.2,19.51,0.48,29.27,1.21
		c7.76,0.58,15.6-0.07,23.41-0.13c2.84-0.02,5.71-0.18,8.49,0.26c1.17,0.18,2.9,1.68,2.98,2.69c0.08,1.01-1.37,2.6-2.52,3.14
		c-1.84,0.87-3.97,1.41-6,1.53c-12.92,0.76-25.83,1.1-38.72-0.82c-3.39-0.51-6.92-0.41-10.36-0.26
		c-11.45,0.49-22.85-0.23-34.25-1.23c-2.83-0.25-5.73-0.31-8.56-0.02c-8.58,0.89-17.11,0.34-25.68-0.27
		c-6.73-0.48-13.5-0.35-20.25-0.4c-3.46-0.03-6.94,0.42-10.37,0.13c-12.5-1.06-24.93-0.14-37.41,0.59
		c-6.27,0.36-12.6-0.45-18.91-0.59c-3.58-0.08-7.2-0.14-10.74,0.28c-8.08,0.98-16.11,1.59-24.28,1.17
		c-7.93-0.4-15.91,0.17-23.87,0.23c-6.76,0.05-13.53-0.12-20.29,0.01c-4.49,0.08-8.98,0.52-13.47,0.78c-3,0.17-6,0.4-9,0.45
		c-12.93,0.24-25.87,0.43-38.8,0.64c-1.2,0.02-2.41,0.11-3.61,0.02c-17.28-1.28-34.58-0.65-51.87-0.6
		c-12.63,0.04-25.27-0.06-37.9-0.07c-13.38-0.01-26.76,0.14-40.13-0.02c-5.39-0.06-10.77-0.9-16.16-1.14
		c-6-0.27-12.01-0.31-18.01-0.37c-5.71-0.05-11.43,0.27-17.12-0.04c-8.6-0.47-17.12-0.15-25.66,0.9c-3.56,0.44-7.2,0.42-10.8,0.42
		c-8.58,0.01-17.08,0.65-25.62,1.72c-6.19,0.77-12.59,0.01-18.89-0.25c-9.03-0.38-18.03-0.39-27.03,0.69
		c-3.7,0.44-7.53,0.51-11.23,0.07c-7.73-0.9-15.27-0.25-22.84,1.36c-3.65,0.77-7.43,1.17-11.16,1.24
		c-10.07,0.18-20.16,0.33-30.22,0.01c-5.22-0.16-10.41-1.28-15.59-2.08C20.25,508.94,18.97,507.95,18.57,505.4z"/>
	<path class="st2" d="M755.31,743.76c-1.28,0.47-2.54,1.26-3.85,1.36c-5.69,0.42-11.39,0.84-17.09,0.9
		c-8.41,0.09-16.82-0.21-25.23-0.19c-12.48,0.03-25-0.38-37.43,0.45c-12.57,0.84-24.91-0.51-37.33-1.55
		c-5.53-0.46-11.12-0.13-16.66-0.5c-4.63-0.31-9.23-1.14-13.85-1.72c-1.19-0.15-2.39-0.26-3.59-0.29
		c-13.38-0.33-26.76-0.73-40.14-0.93c-9.47-0.14-18.95,0.16-28.41-0.05c-6.29-0.14-12.57-0.94-18.86-1.27
		c-4.8-0.25-9.64-0.03-14.43-0.35c-6.88-0.47-13.72-1.43-20.6-1.85c-6.74-0.41-13.56-1.04-20.23-0.38
		c-6.92,0.68-13.73,0.81-20.64,0.31c-4.02-0.29-8.16-0.49-12.1,0.15c-4.73,0.77-9.29,0.16-13.91-0.25
		c-12.43-1.1-24.84-2.03-37.36-0.96c-4.58,0.39-9.27-0.49-13.91-0.79c-2.69-0.17-5.45-0.83-8.05-0.42
		c-8.21,1.3-16.45,1.37-24.72,1.41c-12.33,0.07-24.67,0.2-37,0.35c-9.61,0.12-19.23,0.76-28.82,0.39
		c-14.31-0.56-28.47,1.35-42.71,1.79c-2.4,0.07-4.86,0.35-7.21,0c-6.82-1.02-13.47,0.02-20.18,0.95c-2.62,0.36-5.36,0.02-8.03-0.14
		c-3.89-0.24-7.78-0.9-11.67-0.88c-9.16,0.06-18.32,0.51-27.48,0.64c-5.55,0.08-11.11-0.29-16.66-0.18
		c-6.14,0.12-12.28,0.67-18.42,0.82c-2.37,0.06-4.74-0.61-7.12-0.73c-8.56-0.43-17.12-0.82-25.69-1.08
		c-1.93-0.06-3.88,0.75-5.8,0.65c-4.48-0.24-8.93-0.82-13.4-1.22c-2.66-0.24-5.32-0.47-7.99-0.61c-1.8-0.09-3.61-0.11-5.41,0.01
		c-2.97,0.19-5.93,0.52-8.9,0.76c-1.34,0.11-2.73,0.34-4.02,0.12c-3.35-0.57-6.67-1.36-10.36-2.14c1.87-1.61,3.79-1.28,5.53-0.67
		c3.67,1.29,7.28,1.03,11.08,0.57c7.37-0.87,14.75-1.54,22.19,0.16c3.46,0.79,7.19,0.91,10.74,0.62c10.23-0.86,20.4-0.28,30.56,0.7
		c4.48,0.43,8.85,0.57,13.38,0.23c7.92-0.61,15.91-0.17,23.87-0.32c6.9-0.13,13.8-0.61,20.7-0.69c9.16-0.11,18.31-0.46,27.43,1.24
		c2.69,0.5,5.64-0.5,8.48-0.65c5.1-0.28,10.2-0.46,15.3-0.65c5.55-0.21,11.1-0.35,16.65-0.58c9.6-0.4,19.19-0.9,28.79-1.25
		c7.95-0.29,15.9-0.5,23.86-0.59c2.99-0.04,5.99,0.54,8.98,0.5c18.19-0.24,36.38-0.57,54.57-0.9c1.35-0.02,2.69-0.23,4.03-0.41
		c5.53-0.74,11.01-0.9,16.58,0.14c3.5,0.65,7.25,0.8,10.78,0.33c9.04-1.19,18.04-0.46,27,0.21c18.33,1.36,36.66,1,54.99,0.54
		c7.21-0.18,14.5-1.27,21.55,0.29c12.34,2.73,24.88,1.17,37.25,2.55c13.49,1.5,27.01,1.09,40.54,0.97
		c10.21-0.09,20.43,0.61,30.65,0.95c1.05,0.04,2.11,0.15,3.16,0.07c9.82-0.69,19.47,0.83,29.14,2.09c0.15,0.02,0.3,0.07,0.45,0.07
		c15.9,0.72,31.78,1.83,47.69,2.06c14.72,0.21,29.47-0.23,44.18-0.93c7.84-0.37,15.59,0.21,23.39,0.29
		c5.23,0.05,10.46-0.63,15.7-0.92c1.9-0.11,3.81-0.02,5.72-0.02C755.08,742.81,755.19,743.28,755.31,743.76z"/>
	<path class="st2" d="M762.56,515.99c-0.67,0.31-0.86,0.46-0.94,0.42c-4.78-2.54-9.9-1.24-14.9-1.39
		c-7.65-0.23-15.29-0.75-22.94-0.9c-7.51-0.15-15.03,0.03-22.54,0.05c-5.24,0.01-10.49,0.03-15.73-0.03
		c-2.71-0.03-5.41-0.32-8.11-0.37c-13.68-0.24-27.37-0.5-41.05-0.61c-4.95-0.04-9.91,0.42-14.87,0.51
		c-8.27,0.15-16.55,0.16-24.82,0.3c-5.11,0.08-10.22,0.42-15.32,0.4c-7.07-0.02-14.14-0.49-21.19-0.35
		c-10.66,0.21-21.32,0.78-31.98,1.21c-1.35,0.05-2.7,0.29-4.04,0.3c-17.6,0.13-35.19,0.19-52.79,0.38
		c-4.96,0.05-9.95,0.19-14.86,0.79c-9.35,1.13-18.61-0.06-27.91-0.52c-4.19-0.21-8.41,0.27-12.61,0.2
		c-8.41-0.14-16.82-0.48-25.23-0.65c-3.45-0.07-6.94-0.25-10.34,0.16c-11.87,1.43-23.71,0.66-35.59,0.19
		c-7.79-0.31-15.62,0.31-23.44,0.47c-3.31,0.07-6.62,0.03-9.92,0.02c-9.16-0.03-18.33,0.08-27.49-0.17
		c-6.9-0.19-13.78-0.98-20.67-1.23c-3.27-0.12-6.58,0.24-9.84,0.66c-10.65,1.37-21.31,1.09-31.98,0.37c-1.2-0.08-2.4-0.24-3.6-0.28
		c-10.82-0.35-21.67-0.23-32.44-1.12c-11.47-0.95-22.77-0.01-34.12,1.22c-2.98,0.32-6.03,0.52-9,0.26
		c-10.13-0.88-20.09,0.5-30.07,1.8c-0.45,0.06-0.9,0.14-1.34,0.15c-14.27,0.33-28.55,0.8-42.82,0.93
		c-8.86,0.08-17.73-0.61-26.59-0.52c-7.73,0.07-15.45,0.75-23.52,1.18c0.66-0.44,1.06-0.93,1.53-0.99
		c5.48-0.73,10.96-1.94,16.45-1.98c14.13-0.11,28.26,0.36,42.4,0.48c3.75,0.03,7.5-0.39,11.25-0.56c6.6-0.31,13.22-0.46,19.81-0.92
		c6.13-0.43,12.23-1.46,18.37-1.75c7.36-0.35,14.74-0.01,22.1-0.3c4.63-0.18,9.23-1.29,13.86-1.41c7.35-0.18,14.71,0.11,22.06,0.25
		c1.49,0.03,2.98,0.43,4.47,0.47c10.37,0.25,20.75,0.39,31.12,0.67c4.21,0.11,8.41,0.73,12.61,0.68c5.71-0.07,11.44-0.29,17.1-0.93
		c5.26-0.59,10.45-0.66,15.73-0.42c9.16,0.41,18.33,0.44,27.5,0.58c4.21,0.07,8.41,0.1,12.62,0.04c8.11-0.1,16.23-0.3,24.34-0.41
		c3.91-0.05,7.83-0.17,11.73,0.05c12.47,0.7,24.92,1.43,37.4-0.09c3.86-0.47,7.82-0.15,11.73-0.09c9.16,0.14,18.33,0.29,27.49,0.53
		c6.76,0.18,13.51,0.61,20.27,0.75c4.65,0.1,9.31-0.05,13.96-0.18c6.92-0.19,13.83-0.58,20.74-0.67c17.45-0.23,34.9-0.25,52.35-0.54
		c4.64-0.08,9.26-1.07,13.89-1.2c7.95-0.21,15.91-0.04,23.87-0.1c7.21-0.06,14.42-0.22,21.64-0.32c3.61-0.05,7.23-0.24,10.83-0.07
		c10.69,0.51,21.34,0.12,31.98-1c2.95-0.31,5.99,0.14,8.98,0.29c1.8,0.09,3.59,0.36,5.39,0.38c9.78,0.09,19.56,0.05,29.34,0.19
		c4.65,0.07,9.3,0.53,13.95,0.63c4.81,0.1,9.68,0.46,14.42-0.13c10.27-1.28,20.4-0.17,30.59,0.62c6.41,0.5,12.93,0.73,19.31,0.13
		C755.56,512.08,758.94,513.14,762.56,515.99z"/>
	<path class="st6" d="M26.01,756.06l-9.14,7.37c0,0,6.61,4.37,4.14,3.37s618.08-1.59,618.08-1.59s117.6,2.37,120.11,2.07
		c2.5-0.3,13.35-4.73,13.35-4.73l-13.98-3.97l5.23-4.69c0,0-224.78,0.37-229.79,0.67c-5,0.3-85.08,0.3-111.77,0.59
		s-159.07-2.58-158.35-1.73s-91.87,3.21-91.87,3.21s-51.38,1.73-51.55,0.57s-17.68-1.46-20.18-1.46s-31.69,0.89-31.69,0.89
		L26.01,756.06"/>
	<path class="st2" d="M726.76,772.39c-11.87,0.32-23.73,0.65-35.6,0.97c-1.65,0.04-3.33,0.21-4.96,0.04
		c-12.16-1.26-24.35-0.23-36.52-0.5c-8.1-0.18-16.17-1.32-24.27-1.83c-5.4-0.34-10.83-0.62-16.23-0.39
		c-10.71,0.45-21.34,0.17-31.95-1.45c-2.51-0.38-5.13-0.59-7.64-0.35c-12.66,1.19-25.25-0.29-37.86-0.86
		c-3.76-0.17-7.52-0.36-11.28-0.31c-13.54,0.18-27.05-0.12-40.55-1.52c-5.06-0.53-10.23,0.01-15.33-0.26
		c-8.1-0.42-16.19-1.44-24.29-1.61c-13.38-0.28-26.78,0.06-40.17-0.16c-5.84-0.1-11.66-1.05-17.5-1.41
		c-3.74-0.23-7.51-0.23-11.25-0.09c-7.51,0.28-15.01,0.9-22.52,1.07c-13.39,0.3-26.78,0.4-40.17,0.52
		c-5.41,0.05-10.83-0.25-16.24-0.09c-8.11,0.25-16.21,0.84-24.32,1.14c-3.89,0.14-7.79,0.05-11.68-0.15
		c-3.3-0.16-6.59-0.88-9.88-0.9c-20.31-0.09-40.63-0.48-60.92,0.1c-12.84,0.37-25.55,0.17-38.24-1.75c-1.77-0.27-3.64-0.33-5.4-0.05
		c-9.9,1.54-19.79,1.12-29.71,0.29c-1.64-0.14-3.32-0.18-4.96-0.06c-10.07,0.75-20.09,0.61-30.18-0.22
		c-12.73-1.04-25.54-1.12-38.3-1.77c-4.05-0.2-8.11-0.68-12.08-1.44c-2.14-0.41-4.18-1.57-6.13-2.63c-0.46-0.25-0.62-1.55-0.44-2.24
		c0.1-0.39,1.3-0.87,1.82-0.71c8.38,2.59,17.01,1.43,25.54,1.85c11.86,0.59,23.72,1.24,35.59,1.66c5.55,0.2,11.12-0.07,16.68-0.13
		c5.56-0.06,11.13-0.16,16.69-0.16c5.11,0,10.26,0.51,15.33,0.09c9.95-0.82,19.83-0.59,29.72,0.57c10.08,1.19,20.13-0.29,30.2-0.37
		c10.37-0.08,20.74,0.01,31.12,0.04c5.42,0.02,10.83-0.04,16.25,0.11c6.76,0.19,13.51,0.59,20.27,0.85c2.1,0.08,4.21,0.12,6.3-0.03
		c10.2-0.71,20.37-1.35,30.64-0.93c10.2,0.41,20.45-0.3,30.68-0.47c7.22-0.11,14.44-0.04,21.66-0.21c6.61-0.15,13.22-0.46,19.82-0.8
		c6.31-0.32,12.54-0.08,18.87,0.58c8.94,0.93,18.02,0.99,27.02,0.73c13.41-0.39,26.76-0.03,40.1,1.32c4.19,0.42,8.41,0.5,12.62,0.66
		c8.26,0.33,16.52,0.65,24.79,0.9c6.16,0.18,12.32,0.16,18.47,0.39c12.47,0.46,24.94,1.09,37.41,1.52
		c5.86,0.2,11.73-0.05,17.59,0.13c6.9,0.22,13.79,0.74,20.69,1.03c6.61,0.28,13.23,0.75,19.83,0.58
		c11.61-0.29,23.11,0.25,34.66,1.67c7.57,0.93,15.32,0.31,22.99,0.47c6.01,0.13,12.01,0.57,18.02,0.55
		c7.06-0.03,14.12-0.46,21.18-0.62c6.16-0.13,12.32-0.13,18.48-0.17c9.92-0.06,19.84-0.05,29.76-0.18c3.13-0.04,4.93,0.59,5.23,2.31
		c0.3,1.72-0.94,3.53-3.81,4.35c-2.56,0.73-5.31,1.02-7.99,1.09c-5.86,0.15-11.74,0.05-17.6,0.05
		C726.77,772.93,726.77,772.66,726.76,772.39z"/>
	<g>
		<path class="st5" d="M3.95,750.66c63.5-2.43,127.86-3.14,191.42-2.56c30.85,0.46,64.73,1.51,95.71,1.78
			c47.57,0.44,96-0.89,143.56-1.67c111.34-1.45,223.73-1.41,334.98,2.46c0,0,0,0.7,0,0.7c-111.24,3.87-223.65,3.91-334.98,2.46
			c-47.57-0.79-95.99-2.11-143.56-1.67c-31,0.27-64.82,1.32-95.71,1.78c-30.95,0.44-64.66,0.15-95.71-0.2
			c-15.95-0.19-31.9-0.47-47.85-0.85c-15.95-0.37-31.9-0.83-47.85-1.51V750.66L3.95,750.66z"/>
	</g>
	<path class="st2" d="M17.78,742.01c1.76,0.29,3.05,0.46,4.32,0.7c10.33,1.96,20.62,4.24,31.25,2.55c5.34-0.85,10.4,0.82,15.54,1.82
		c1.6,0.31,3.27,0.41,4.9,0.37c3.59-0.08,7.23-0.81,10.74-0.36c6.22,0.8,12.3-0.02,18.43-0.53c2.54-0.21,5.09-0.51,7.64-0.51
		c13.54-0.04,27.08,0.07,40.61-0.02c4.05-0.03,8.09-0.8,12.14-0.78c9.61,0.05,19.26-0.03,28.83,0.69
		c9.88,0.74,19.69,1.15,29.59,0.26c8.07-0.73,16.21-0.73,24.32-0.9c4.66-0.1,9.33,0.26,13.98,0.16c4.63-0.11,9.26-0.62,13.89-0.8
		c3.89-0.16,7.79-0.18,11.69-0.11c4.79,0.09,9.61,0.82,14.34,0.38c4.24-0.4,8.34-0.63,12.51,0.27c9.01,1.93,17.98-0.07,26.96-0.37
		c7.81-0.26,15.63-0.49,23.45-0.57c2.07-0.02,4.16,0.46,6.22,0.84c6.27,1.19,12.56,0.95,18.88,0.51c3.28-0.23,6.58-0.03,9.88,0
		c5.86,0.05,11.73-0.04,17.59,0.19c8.55,0.33,17.09,0.88,25.63,1.35c1.05,0.06,2.13,0.49,3.12,0.31c7.7-1.42,15.24,0.76,22.87,0.88
		c2.41,0.04,4.82,0.02,7.22,0.17c4.94,0.31,9.87,0.74,14.8,1.06c2.7,0.17,5.45,0.55,8.1,0.24c9.31-1.1,18.61-0.44,27.91-0.21
		c13.98,0.35,27.96,0.54,41.93,0.97c4.95,0.15,9.88,0.98,14.83,1.12c5.38,0.15,10.78-0.26,16.17-0.19
		c3.59,0.04,7.17,0.58,10.76,0.74c7.35,0.33,14.76,0.12,22.05,0.93c8.54,0.94,17.05,0.9,25.61,1.02
		c11.57,0.16,23.12,0.97,34.68,1.58c2.24,0.12,4.47,0.9,6.68,0.82c4.93-0.19,9.85-0.83,14.78-1.09c2.67-0.14,5.44-0.25,8.03,0.28
		c6.28,1.29,12.5,1.12,18.81,0.34c4.89-0.6,9.83-0.76,14.75-1.11c0.13,0.29,0.27,0.57,0.4,0.86c-0.66,0.59-1.29,1.64-1.98,1.68
		c-9.58,0.55-19.15,3.05-28.73,1.3c-6.06-1.11-11.88-0.86-17.84,0.11c-2.35,0.38-4.8,0.45-7.19,0.31
		c-12.74-0.72-25.47-1.56-38.21-2.32c-2.7-0.16-5.41-0.25-8.12-0.19c-6.76,0.14-13.44,0.07-20.21-0.82
		c-8.01-1.06-16.2-0.85-24.31-1.07c-9.91-0.27-19.83-0.28-29.73-0.66c-11.69-0.44-23.37-1.41-35.06-1.69
		c-14.13-0.34-28.28-0.11-42.42-0.3c-5.83-0.08-11.66-0.64-17.49-0.9c-6-0.27-12.01-0.46-18.01-0.67
		c-8.41-0.3-16.82-0.55-25.23-0.93c-3.45-0.15-6.88-0.63-10.33-0.88c-6.29-0.45-12.53-1.08-18.89-0.48
		c-4.45,0.42-8.99-0.25-13.5-0.37c-3.01-0.08-6.05-0.35-9.01,0.02c-8.16,1.02-16.16,0.16-24.23-0.99
		c-4.43-0.63-9.01-0.33-13.51-0.17c-6.6,0.22-13.22,0.48-19.79,1.11c-6.78,0.65-13.47,0.4-20.23-0.24
		c-4.32-0.41-8.71,0.14-13.07,0.03c-4.79-0.12-9.58-0.51-14.37-0.76c-1.65-0.09-3.31-0.22-4.95-0.15
		c-6.74,0.32-13.47,0.81-20.21,1.06c-9.91,0.36-19.82,0.53-29.73,0.87c-5.25,0.18-10.48,0.71-15.73,0.77
		c-4.02,0.05-8.05-0.42-12.08-0.61c-4.5-0.21-9.01-0.38-13.52-0.54c-4.2-0.16-8.4-0.42-12.6-0.41c-6.3,0.02-12.6,0.27-18.91,0.38
		c-5.11,0.09-10.22,0.13-15.33,0.16c-7.52,0.04-15.05-0.09-22.57,0.09c-6.15,0.15-12.28,0.69-18.42,0.99
		c-2.85,0.14-5.71,0.15-8.57,0.17c-6.02,0.05-12.03,0.16-18.05,0.06c-2.38-0.04-4.83-0.28-7.09-0.95
		c-4.42-1.31-8.84-1.38-13.37-1.09c-10.12,0.66-20.1-0.2-29.85-3.16c-1.02-0.31-2.04-1.09-2.62,0.84
		C19.35,746.07,18.43,745.6,17.78,742.01z"/>
	<path class="st2" d="M89.8,714.41c-10.69-0.29-21.66-0.47-32.62-0.96c-3.1-0.14-6.17-1.09-9.22-1.81
		c-2.92-0.69-5.76-1.79-8.71-2.33c-6.8-1.24-11.48-5.67-15.8-10.47c-4.04-4.49-6.68-9.85-8.04-15.8c-0.4-1.76-0.91-3.5-1.55-5.18
		c-4.33-11.37-6.46-23.25-6.64-35.3c-0.18-11.86,1.14-23.72,3.76-35.35c1.42-6.29,3.23-12.5,4.52-18.82
		c1.42-6.9,4.58-12.93,8.4-18.69c2.56-3.86,5.3-7.6,8.03-11.34c3.44-4.71,7.9-7.77,13.91-8.02c8.24-0.35,16.49-0.59,24.74-0.92
		c1.34-0.05,2.68-0.34,4.02-0.49c2.53-0.29,5.13-1.06,7.59-0.74c8.08,1.05,15.93-0.71,23.75-1.92c6.76-1.04,13.48-1.01,20.23-1.11
		c4.51-0.06,9.02-0.31,13.53-0.23c4.34,0.08,8.68,0.52,13.02,0.71c4.05,0.17,8.1,0.29,12.15,0.29c3,0,6.07-0.64,9-0.26
		c8.13,1.07,16.2,0.75,24.3-0.04c2.08-0.2,4.26-0.21,6.3,0.18c11.22,2.17,22.5,1.11,33.76,0.7c4.96-0.18,9.93-1.02,14.85-0.74
		c5.82,0.33,11.59,1.59,17.39,2.38c2.07,0.28,4.17,0.36,6.26,0.49c4.03,0.26,8.07,0.43,12.09,0.76c7.18,0.58,14.35,1.21,21.52,1.91
		c3.12,0.3,6.22,0.8,9.32,1.24c1.19,0.17,2.36,0.61,3.54,0.61c6.01,0.01,12.04-0.38,18.03-0.07c15.44,0.8,30.98-2.03,46.36,1.22
		c1,0.21,2.1,0.08,3.13-0.05c9.46-1.18,18.92-0.86,28.37,0.11c1.34,0.14,2.7,0.17,4.06,0.19c9.31,0.17,18.62,0.32,27.92,0.47
		c0.6,0.01,1.23,0.1,1.8-0.06c6.51-1.81,13.18-0.73,19.76-1.18c5.24-0.36,10.44-1.2,15.67-1.71c2.83-0.28,5.73-0.75,8.5-0.4
		c3.66,0.47,7.16,0.41,10.71-0.5c10.43-2.67,20.93-1.05,31.42-0.51c9.89,0.51,19.72,1.68,29.7,0.46c6.04-0.74,12.28,0.21,18.43,0.39
		c2.54,0.08,5.08,0.16,7.62,0.19c5.4,0.07,10.8,0.15,16.19,0.13c4.79-0.02,9.58-0.15,14.37-0.25c3-0.07,6.01-0.37,9-0.25
		c8.86,0.38,17.73,0.69,26.56,1.47c6.56,0.58,13.06,1.88,19.59,2.81c2.52,0.36,5.06,0.63,7.6,0.81c4.94,0.35,9.88,0.68,14.82,0.89
		c4.95,0.22,9.94,0.02,14.86,0.49c5.65,0.54,11.33,1.29,16.86,2.58c4.09,0.96,7.14,4.25,9.04,7.72c4.09,7.46,9.4,14.29,12.03,22.52
		c0.46,1.43,0.95,2.86,1.27,4.32c3.76,17.43,5.46,35.04,4.84,52.88c-0.43,12.45-3.2,24.37-7.86,35.89
		c-1.57,3.89-3.34,7.71-4.67,11.67c-2.48,7.41-7.64,12.57-13.32,17.61c-4.6,4.08-10.3,4.56-15.64,6.25
		c-6.92,2.18-14.08,2.48-21.33,2.87c-16.31,0.88-32.47-0.46-48.62-2.18c-7.33-0.78-14.6-1.92-22.01-1.61
		c-2.24,0.09-4.52-0.12-6.75-0.4c-7.65-0.94-15.29-0.94-22.98-0.48c-4.93,0.29-9.92,0.11-14.85-0.28
		c-12.29-0.98-24.55-2.44-36.86-3.25c-8.4-0.55-16.84-0.33-25.26-0.46c-9.62-0.15-19.26-0.63-28.87-0.4
		c-15.02,0.36-30.08-0.02-45.02,2.29c-2.76,0.43-5.68-0.09-8.51-0.31c-4.19-0.32-8.37-0.83-12.56-1.14
		c-5.39-0.41-10.8-0.58-16.19-1.07c-9.57-0.86-19.13-1.92-28.7-2.81c-1.48-0.14-2.99,0.13-4.49,0.22c-2.85,0.17-5.7,0.32-8.55,0.52
		c-6.14,0.43-12.27,0.88-18.41,1.32c-2.85,0.2-5.69,0.46-8.54,0.59c-5.85,0.27-11.71,0.71-17.56,0.62
		c-5.54-0.09-11.07-0.73-16.6-1.19c-3.89-0.32-7.76-0.89-11.65-1.1c-8.71-0.48-17.42-1.01-26.14-1.16
		c-11.12-0.2-22.26-0.06-33.38-0.07c-1.5,0-3.01,0.1-4.51,0.01c-14.91-0.89-29.76,0.7-44.63,1.21c-2.1,0.07-4.19,0.41-6.26,0.77
		c-5.39,0.92-10.8,1.07-16.17,0.07c-6.44-1.2-12.86-1.05-19.34-0.49c-3.59,0.31-7.22,0.7-10.8,0.48c-6.65-0.4-13.19,0.22-19.79,0.92
		C106.65,713.66,98.37,713.89,89.8,714.41z M651.39,590.79c1.08,6.2,3.03,12.34-0.35,19.11c9.78-3.17,18.3-7.78,28.21-5.72
		c0.26,9.22,0.73,18.22,0.73,27.22c0,12.47-0.34,24.94-0.56,37.4c-0.01,0.69-0.29,1.38-0.43,2.04c-9.33,1.67-17.1-2.77-26.25-5.95
		c3.74,6.92,1.26,13.2,0.49,19.65c10.55,0.69,20.56,1.62,30.59,1.9c8.38,0.23,16.79-0.34,25.19-0.45c2.23-0.03,4.46,0.34,6.69,0.44
		c1.71,0.08,3.43,0.02,5.11,0.02c0.35-6.86,0.68-13.27,1.03-20.19c-7.32,4.5-14.63,7.45-22.95,5.6
		c-2.99-23.23,0.08-46.03,1.16-68.82c9.4-1.88,17.27,1.39,24.89,5.49c-0.29-7-0.56-13.54-0.83-19.92 M100.79,602.99
		c9-1.83,16.95,1.3,24.59,5.56c-0.27-6.79-0.53-13.34-0.79-19.94c-24.29-0.25-48.37-1.11-72.7,2.15c0.52,2.98,1.4,6.04,1.48,9.12
		c0.08,3.19-0.61,6.41-0.99,9.81c8.85-3.07,17.3-7.39,27.22-5.58c0.11,0.82,0.26,1.53,0.28,2.25c0.21,8.41,0.58,16.83,0.56,25.24
		c-0.03,12.02-0.34,24.03-0.55,36.05c-0.02,1.01-0.17,2.02-0.26,3.12c-9.41,1.92-17.24-2.82-26.48-5.79
		c3.72,6.92,1.37,13.09,0.56,19.24c0.7,0.2,1.13,0.4,1.56,0.43c8.08,0.51,16.16,1.12,24.26,1.44c7.5,0.3,15.01,0.19,22.52,0.43
		c5.36,0.17,10.73-1.64,16.09,0.22c0.87,0.3,2-0.16,3.13-0.28c0.33-6.75,0.66-13.24,1-20.14c-7.46,4.41-14.72,7.5-23.08,5.45
		C97.59,657.92,98.59,615.69,100.79,602.99z M483.79,683.95c-0.71-2.65-1.8-4.79-1.78-6.93c0.07-9.02,0.34-18.04,0.8-27.04
		c0.24-4.65,1.6-5.68,6.15-5.8c3.45-0.09,6.89-0.19,10.34-0.25c1.2-0.02,2.41-0.01,3.6,0.14c3.19,0.4,3.88,1.03,4,4.27
		c0.21,5.71,0.29,11.42,0.38,17.14c0.1,5.95,1.18,11.95-1.41,18.17c8.73-0.27,16.93,2,26.22,0.36c-1.69-2.5-2.92-4.29-4.13-6.1
		c-0.74-1.1-1.82-2.12-2.14-3.33c-2.23-8.42-4.44-16.84-6.38-25.33c-3.98-17.42-7.64-34.92-11.72-52.32
		c-1.35-5.76-1.18-7.87-8.43-7.11c-0.43,0.05-0.88-0.22-1.32-0.22c-4.88-0.02-9.76-0.01-14.9-0.01c-0.17,0.53-0.44,1.22-0.63,1.92
		c-5.82,21.79-10.36,43.85-14.29,66.04c-1.63,9.2-2.06,18.75-7.81,27.62C468.37,684.77,475.94,684.37,483.79,683.95z M278.62,587.75
		c-0.3,0.91-0.74,2.02-1.04,3.16c-6.86,25.86-11.85,52.11-16.3,78.48c-0.6,3.57-1.23,7.06-3.54,10.04
		c-0.75,0.97-1.11,2.23-1.97,4.03c8.27-0.48,15.83-0.92,23.44-1.36c-0.65-2.58-1.68-4.73-1.66-6.87c0.1-9.16,0.42-18.33,0.85-27.48
		c0.19-4.09,1.2-5.04,5.12-5.26c4.34-0.25,8.69-0.36,13.04-0.32c4.97,0.05,5.81,0.81,5.98,5.7c0.24,6.91,0.34,13.83,0.32,20.74
		c-0.01,4.28-0.37,8.57-0.59,13.26c7.76-0.34,15.96,2.02,24.46,0.5c-0.4-2.78-1.69-4.52-3.2-6.22c-0.97-1.09-2.02-2.34-2.38-3.7
		c-2.21-8.26-4.39-16.54-6.28-24.88c-2.36-10.39-4.35-20.87-6.68-31.27c-1.84-8.2-3.85-16.37-5.99-24.5
		c-0.83-3.15-2.18-4.01-5.09-4.03C291.16,587.72,285.21,587.75,278.62,587.75z M417.44,588.96c-12.76-0.84-24.57-1.72-36.39-2.37
		c-13.5-0.74-25.6,8.75-29.48,21.98c-1.66,5.66-2.48,11.41-2.59,17.31c-0.19,9.85,1.31,19.5,3.58,28.99
		c2.36,9.85,7.15,18.49,15.17,24.98c2.66,2.15,5.49,4.28,8.59,5.61c3.83,1.64,7.98,2.67,12.08,3.54c6.36,1.35,12.12-1.05,17.75-3.6
		c0.9-0.41,1.67-1.31,2.26-2.16c3.67-5.3,7.56-10.37,13.84-13.51c-4.17-5.76-8.1-11.19-12.48-17.24c-1.28,3.69-2.17,6.54-3.25,9.31
		c-1.58,4.07-3.33,8.15-6.85,10.94c-5.68,4.49-16.34,3.07-22.24-2.84c-4.55-4.56-7.64-9.88-8.86-16.36
		c-1.43-7.59-1.46-15.23-1.55-22.89c-0.1-8.38,1.48-16.38,4.9-24.08c4.84-10.88,15.1-13.48,24.87-7.07
		c2.21,1.45,4.54,2.73,6.71,4.02C408.07,598.73,412.39,594.23,417.44,588.96z M231.92,606.82c-0.26-6.79-0.51-13.34-0.77-19.94
		c-12.26-0.2-24.34-0.76-36.39-0.48c-12.06,0.28-24.11,1.4-36.42,2.18c0.63,3.69,1.52,6.77,1.6,9.87c0.08,3.05-0.65,6.12-1.07,9.47
		c8.97-3.11,17.53-7.55,27.59-5.48c0.35,27.3,0.7,54.34,1.05,81.58c4.18,1.54,8.29,1.21,12.05-0.02c1.69-0.55,2.58,0.48,3.96,0.43
		c0.3-0.55,0.79-1.06,0.81-1.58c0.21-6.6,0.42-13.21,0.48-19.82c0.07-8.71-0.21-17.43,0.05-26.14c0.25-8.25,1-16.49,1.53-24.74
		c0.24-3.68,0.46-7.36,0.69-10.92C216.55,599.47,224.41,602.49,231.92,606.82z M579.26,666.04c-0.02,1.44-0.11,2.88-0.16,4.32
		c-2.6,0.2-4.65,0.37-6.37,0.5c-0.39,5.04-0.76,9.72-1.13,14.46c6.05,0.41,11.87,1.03,17.7,1.12c5.84,0.1,11.69-0.41,17.54-0.51
		c5.72-0.1,11.44-0.02,17.65-0.02c0-6.95,0-13.42,0-20.08c-7.66,4.43-15.54,7.63-24.64,5.62c-0.15-2.12-0.44-3.92-0.37-5.7
		c0.28-7.34,0.93-14.68,0.96-22.02c0.05-13.83-0.16-27.65-0.41-41.48c-0.07-3.71,0.65-7.15,2.12-10.5c0.47-1.08,0.91-2.17,1.77-4.22
		c-7.73-0.38-14.71-0.77-21.7-1.02c-1.62-0.06-3.29,0.27-4.9,0.61c-3.21,0.68-3.48,1.43-1.25,3.98c2.64,3.03,4.25,6.14,4.15,10.47
		 M211.27,683.88c2.07-4.03,2-62.11-0.08-70.9C209.04,619.02,209.11,679.18,211.27,683.88z M105.09,614.73
		c-0.25-0.02-0.5-0.04-0.76-0.05c-0.28,1.43-0.79,2.86-0.8,4.3c-0.17,14.27-0.28,28.55-0.34,42.83c-0.01,1.17,0.19,2.44,0.69,3.47
		c0.41,0.84,1.31,1.66,2.19,2.03c1.99,0.82,3.85,0.06,5.5-1.1c1.62-1.14,3.49-2.2,3.36-5.28c-1.77,0.86-3.02,1.61-4.36,2.09
		c-2.17,0.78-3.89-0.26-4.33-2.54c-0.14-0.73-0.07-1.5-0.08-2.25c-0.1-10.67-0.15-21.34-0.33-32.01
		C105.76,622.39,105.35,618.56,105.09,614.73z M714.27,661.14c-1.09,0.47-2,0.82-2.87,1.24c-3.82,1.8-5.53,0.72-5.69-3.61
		c-0.02-0.45,0-0.9,0-1.35c-0.1-10.82-0.15-21.64-0.34-32.46c-0.06-3.42-0.5-6.84-0.76-10.26c-1.04,1.66-1.49,3.37-1.51,5.09
		c-0.17,13.67-0.26,27.35-0.34,41.02c-0.01,1.33-0.01,2.77,0.47,3.97c0.4,0.99,1.35,2.07,2.32,2.48
		C708.9,668.67,713.54,665.5,714.27,661.14z M386.49,607.12c-4.87-0.87-6.01-0.21-7.02,3.81c-0.4,1.6-0.71,3.23-0.88,4.87
		c-1.19,10.93-1.08,21.88,0.37,32.77c0.41,3.07,0.16,6.57,3.25,9.9c-0.13-2.32-0.24-3.75-0.3-5.18
		c-0.45-10.64-1.28-21.28-1.17-31.91C380.8,616.3,380.01,610.17,386.49,607.12z M575.36,605.82c-0.37,0.04-0.75,0.08-1.12,0.12
		c-0.17,0.38-0.47,0.75-0.48,1.14c-0.27,12.61-0.58,25.21-0.74,37.82c-0.06,4.67-0.08,9.31-1.99,13.68
		c-0.87,2.01-0.27,3.38,1.37,4.35c2.41-0.5,2.47-2.1,2.47-3.86c0-4.96-0.02-9.92,0.15-14.87c0.36-10.35,0.9-20.7,1.2-31.06
		C576.29,610.71,575.66,608.26,575.36,605.82z M523.69,648.15c0.04-11.55-7.87-46.33-11.54-51.22
		C514.87,614.23,520.93,630.79,523.69,648.15z M307.88,593.93c0.18,9.19,3.3,17.67,5.48,26.38c2.17,8.63,3.85,17.39,5.74,26.09
		c0.32-0.07,0.64-0.15,0.96-0.22C316.4,628.66,314.33,610.78,307.88,593.93z M455.6,680.09c3.21-0.23,4.64-2.25,5.2-4.82
		c1.3-6,2.43-12.04,3.57-18.08c0.41-2.19,0.64-4.42,0.95-6.64c-2.57,2.33-2.73,5.33-3.47,8.15
		C459.94,665.83,460.33,673.65,455.6,680.09z M250.64,677.85c0.18,0.24,0.37,0.48,0.55,0.72c0.66-0.17,1.4-0.19,1.95-0.53
		c2.2-1.36,3.12-3.61,3.58-5.98c1.35-7.03,2.6-14.08,3.85-21.13c0.13-0.73,0.02-1.5,0.02-2.26c-1.12,0.73-1.67,1.56-1.89,2.48
		c-0.7,2.9-1.1,5.88-1.94,8.73C254.98,665.96,255.61,672.82,250.64,677.85z M604.7,609.79c0.38,0.04,0.76,0.09,1.14,0.13
		c0.46-2.89,0.82-5.81,1.39-8.68c1.38-6.96,1.42-6.95-0.06-8.8C604.89,598.25,604.11,603.92,604.7,609.79z M412.82,608.19
		c0.3,0.21,0.59,0.42,0.89,0.64c3.03-4.31,6.07-8.63,9.1-12.94c-0.32-0.22-0.63-0.45-0.95-0.67
		C418.37,599.21,414.02,602.58,412.82,608.19z M74.5,611.66c-2.82,0.02-5.04-0.41-7.21,1.29c2.43,1.65,4.54,3.08,6.9,4.68
		C74.29,615.77,74.38,614.06,74.5,611.66z M180.68,615.77c0-1.96,0-3.8,0-5.73c-2.54-0.35-4.7-0.46-6.94,1.06
		C176.23,612.77,178.26,614.14,180.68,615.77z M666.02,612.44c3.14,2.08,5.37,3.55,7.64,5.05c0-1.9,0-3.74,0-6.08
		C671.19,611.74,669.11,612.03,666.02,612.44z M620.57,661.39c-3.44,0.24-5.68,2.18-8.64,3.76
		C616.21,666.27,617.84,665.53,620.57,661.39z M423.75,655.47c0.7,4.82,2.41,7.41,5.77,9.35
		C427.6,661.71,425.67,658.59,423.75,655.47z M501.08,651.2c-0.06-2.8-0.4-2.93-4.63-1.76c0.84,0.39,1.47,0.72,2.13,0.97
		C499.38,650.71,500.21,650.93,501.08,651.2z M292.33,646.88c3.85,2.69,3.85,2.69,4.66,0.27
		C295.38,647.06,293.86,646.97,292.33,646.88z"/>
	<path class="st2" d="M489.44,613.36c8.91-0.88,8.86-0.87,10.41,7.06c1.2,6.15,2.53,12.27,3.94,19.04
		c-7.18-1.28-13.9,0.93-21.19,0.24C484.96,630.58,487.17,622.08,489.44,613.36z M494.49,634.91c3.74,1.2,4.86,0.56,4.55-2.83
		c-0.24-2.68-0.69-5.35-1.2-7.99c-0.13-0.66-0.86-1.2-1.31-1.8c-0.47,2.33-0.39,4.41-0.04,6.44
		C497.16,632.58,497.22,632.57,494.49,634.91z"/>
	<path class="st2" d="M285.46,611.66c8.91-0.88,8.86-0.87,10.41,7.06c1.2,6.15,2.53,12.27,3.94,19.04
		c-7.18-1.28-13.9,0.93-21.19,0.24C280.99,628.88,283.19,620.38,285.46,611.66z M290.51,633.21c3.75,1.2,4.86,0.56,4.55-2.83
		c-0.24-2.68-0.69-5.35-1.2-7.99c-0.13-0.66-0.86-1.2-1.31-1.8c-0.47,2.33-0.39,4.41-0.04,6.44
		C293.18,630.88,293.24,630.87,290.51,633.21z"/>
</g>
<g id="PALETTES">
</g>
</svg>
