<?xml version="1.0" encoding="utf-8"?>
<!-- Generator: Adobe Illustrator 27.0.0, SVG Export Plug-In . SVG Version: 6.00 Build 0)  -->
<svg version="1.1" id="Isolation_Mode" xmlns="http://www.w3.org/2000/svg" xmlns:xlink="http://www.w3.org/1999/xlink" x="0px"
	 y="0px" viewBox="0 0 2000 2000" style="enable-background:new 0 0 2000 2000;" xml:space="preserve">
<style type="text/css">
	.st0{fill:#FFFFFF;}
</style>
<g>
	<path class="st0" d="M323.27,617.37c-0.36,0.33-0.7,0.66-1.03,1C322.88,617.76,323.38,617.27,323.27,617.37z"/>
	<path class="st0" d="M366.73,417.88C235.99,417.88,130,523.87,130,654.61s105.99,236.73,236.73,236.73s236.73-105.99,236.73-236.73
		S497.48,417.88,366.73,417.88z M457.05,758.27c-14.36,7.19-29.31,15.99-52.36,13.53c-35.77-3.81-57.41-26.99-80.52-51.74
		c-20.88-22.37-77.01-82.49-59-145.24c3.17-11.04,8.12-20.39,13.44-28.07c6.92-10,17.03-14.92,29.56-1.82l24.93,22.85
		c15.11,14.27,15.64,20.85,9.59,32.28c-1.83,3.45-2.27,3.28-4.71,6.31c-2.18,2.7-8.19,7.11-11.2,8.84l-5.94,4.75
		c-7.75,9.52-4.58,21.36,3.85,31.97l36.36,45.74c9.73,12.24,27.25,14.88,40.15,6.05l2.73-1.87c19.15-20.35,32.11-16.41,47.84,5.93
		l16.35,23.99C477.3,744.6,467.86,752.87,457.05,758.27z"/>
</g>
</svg>
