<?xml version="1.0" encoding="utf-8"?>
<!-- Generator: Adobe Illustrator 27.0.0, SVG Export Plug-In . SVG Version: 6.00 Build 0)  -->
<svg version="1.1" id="Isolation_Mode" xmlns="http://www.w3.org/2000/svg" xmlns:xlink="http://www.w3.org/1999/xlink" x="0px"
	 y="0px" viewBox="0 0 2000 2000" style="enable-background:new 0 0 2000 2000;" xml:space="preserve">
<style type="text/css">
	.st0{fill:#FFFFFF;}
</style>
<g>
	<path class="st0" d="M366.73,1108.66c-130.74,0-236.73,105.99-236.73,236.73c0,130.75,105.99,236.73,236.73,236.73
		s236.73-105.99,236.73-236.73C603.47,1214.64,497.48,1108.66,366.73,1108.66z M372.06,1472.42c-2.64,3.59-8,3.59-10.64,0
		c-19.64-26.63-86.43-109.15-86.9-164.53c-0.43-50.93,41.29-92.22,92.22-92.22c50.93,0,92.22,41.29,92.22,92.22
		C458.96,1351.39,391.69,1445.79,372.06,1472.42z"/>
	
		<ellipse transform="matrix(0.2298 -0.9732 0.9732 0.2298 -990.4242 1364.324)" class="st0" cx="366.74" cy="1307.89" rx="49.86" ry="49.86"/>
</g>
</svg>
